<?xml version="1.0" encoding="UTF-8" standalone="no"?>
<svg
   width="112"
   height="41"
   version="1.1"
   id="svg4"
   sodipodi:docname="busywidget.svg"
   inkscape:version="1.3 (0e150ed6c4, 2023-07-21)"
   xmlns:inkscape="http://www.inkscape.org/namespaces/inkscape"
   xmlns:sodipodi="http://sodipodi.sourceforge.net/DTD/sodipodi-0.dtd"
   xmlns="http://www.w3.org/2000/svg"
   xmlns:svg="http://www.w3.org/2000/svg">
  <sodipodi:namedview
     id="namedview4"
     pagecolor="#ffffff"
     bordercolor="#000000"
     borderopacity="0.25"
     inkscape:showpageshadow="2"
     inkscape:pageopacity="0.0"
     inkscape:pagecheckerboard="0"
     inkscape:deskcolor="#d1d1d1"
     inkscape:zoom="10.035714"
     inkscape:cx="41.950178"
     inkscape:cy="20.676157"
     inkscape:window-width="1920"
     inkscape:window-height="1022"
     inkscape:window-x="0"
     inkscape:window-y="26"
     inkscape:window-maximized="1"
     inkscape:current-layer="svg4" />
  <defs
     id="nova">
    <style
       id="current-color-scheme"
       type="text/css">&#10;   .ColorScheme-Background {color:#181818; } .ColorScheme-ButtonBackground { color:#343434; } .ColorScheme-Highlight { color:#4285f4; } .ColorScheme-Text { color:#dfdfdf; } .ColorScheme-ViewBackground { color:#242424; } .ColorScheme-NegativeText { color:#f44336; } .ColorScheme-PositiveText { color:#4caf50; } .ColorScheme-NeutralText { color:#ff9800; }&#10;  </style>
  </defs>
  <rect
     id="hint-rotation-angle"
     style="fill:#ff00ff"
     width="3.704"
     height="3.704"
     x="0"
     y="0" />
  <g
     id="16-16-busywidget"
     transform="matrix(3.7798254,0,0,3.7798254,0,0.99810896)">
    <rect
       style="opacity:0.00100002"
       width="4.2329998"
       height="4.2329998"
       x="-2.9250818e-05"
       y="6.3482056"
       id="rect2" />
    <path
       style="fill:currentColor;stroke-width:0.937513"
       class="ColorScheme-Highlight"
       d="m 2.1164998,6.4804292 a 0.372041,0.37204096 0 0 0 -0.372041,0.372041 0.372041,0.37204096 0 0 0 0.372041,0.3720409 0.372041,0.37204096 0 0 0 0.372041,-0.3720409 0.372041,0.37204096 0 0 0 -0.372041,-0.372041 z M 0.97131119,6.9527468 a 0.372041,0.37204096 0 0 0 -0.2577159,0.1089964 0.372041,0.37204096 0 0 0 0,0.5260892 0.372041,0.37204096 0 0 0 0.52608921,0 0.372041,0.37204096 0 0 0 0,-0.5260892 0.372041,0.37204096 0 0 0 -0.26837331,-0.1089964 z m 2.27972001,0 a 0.372041,0.37204096 0 0 0 -0.2577161,0.1089964 0.372041,0.37204096 0 0 0 0,0.5260892 0.372041,0.37204096 0 0 0 0.5260893,0 0.372041,0.37204096 0 0 0 0,-0.5260892 A 0.372041,0.37204096 0 0 0 3.2510312,6.9527468 Z M 0.50432224,8.0926067 a 0.372041,0.37204096 0 0 0 -0.372041,0.372041 0.372041,0.37204096 0 0 0 0.372041,0.3720409 0.372041,0.37204096 0 0 0 0.37204099,-0.3720409 0.372041,0.37204096 0 0 0 -0.37204099,-0.372041 z m 3.22435516,0 A 0.372041,0.37204096 0 0 0 3.3566365,8.4646477 0.372041,0.37204096 0 0 0 3.7286774,8.8366886 0.372041,0.37204096 0 0 0 4.1007185,8.4646477 0.372041,0.37204096 0 0 0 3.7286774,8.0926067 Z M 0.97131119,9.2324666 a 0.372041,0.37204096 0 0 0 -0.2577159,0.1089963 0.372041,0.37204096 0 0 0 0,0.5260892 0.372041,0.37204096 0 0 0 0.52608921,0 0.372041,0.37204096 0 0 0 0,-0.5260892 0.372041,0.37204096 0 0 0 -0.26837331,-0.1089963 z m 2.27972001,0 a 0.372041,0.37204096 0 0 0 -0.2577161,0.1089963 0.372041,0.37204096 0 0 0 0,0.5260892 0.372041,0.37204096 0 0 0 0.5260893,0 0.372041,0.37204096 0 0 0 0,-0.5260892 A 0.372041,0.37204096 0 0 0 3.2510312,9.2324666 Z M 2.1164998,9.7047842 a 0.372041,0.37204096 0 0 0 -0.372041,0.3720408 0.372041,0.37204096 0 0 0 0.372041,0.372041 0.372041,0.37204096 0 0 0 0.372041,-0.372041 0.372041,0.37204096 0 0 0 -0.372041,-0.3720408 z"
       id="path2" />
  </g>
  <g
     id="22-22-busywidget"
     transform="matrix(3.7800686,0,0,3.7800686,-6.9862652,1.0185399)">
    <rect
       style="opacity:0.00100002"
       width="5.8200002"
       height="5.8200002"
       x="6.6141176"
       y="4.7610292"
       id="rect1" />
    <path
       style="fill:currentColor;stroke-width:0.240508"
       class="ColorScheme-Highlight"
       d="M 9.5241185,5.0254407 A 0.48101606,0.48101606 0 0 0 9.0431024,5.5064568 0.48101606,0.48101606 0 0 0 9.5241185,5.9874728 0.48101606,0.48101606 0 0 0 10.005134,5.5064568 0.48101606,0.48101606 0 0 0 9.5241185,5.0254407 Z M 7.9866521,5.6595928 a 0.48101608,0.48101603 0 0 0 -0.3330473,0.1409226 0.48101608,0.48101603 0 0 0 0,0.6801867 0.48101608,0.48101603 0 0 0 0.6801868,0 0.48101608,0.48101603 0 0 0 0,-0.6801867 0.48101608,0.48101603 0 0 0 -0.3471395,-0.1409226 z m 3.0608399,0 a 0.48101603,0.48101607 0 0 0 -0.333047,0.1409226 0.48101603,0.48101607 0 0 0 0,0.6801867 0.48101603,0.48101607 0 0 0 0.680187,0 0.48101603,0.48101607 0 0 0 0,-0.6801867 0.48101603,0.48101607 0 0 0 -0.34714,-0.1409226 z m -3.6879458,1.53042 A 0.48101608,0.48101603 0 0 0 6.8785301,7.6710288 0.48101608,0.48101603 0 0 0 7.3595462,8.1520449 0.48101608,0.48101603 0 0 0 7.8405623,7.6710288 0.48101608,0.48101603 0 0 0 7.3595462,7.1900128 Z m 4.3291438,0 A 0.48101608,0.48101603 0 0 0 11.207674,7.6710288 0.48101608,0.48101603 0 0 0 11.68869,8.1520449 0.48101608,0.48101603 0 0 0 12.169706,7.6710288 0.48101608,0.48101603 0 0 0 11.68869,7.1900128 Z M 7.9866521,8.720433 a 0.48101603,0.48101607 0 0 0 -0.3330473,0.1409227 0.48101603,0.48101607 0 0 0 0,0.6801867 0.48101603,0.48101607 0 0 0 0.6801868,0 0.48101603,0.48101607 0 0 0 0,-0.6801867 A 0.48101603,0.48101607 0 0 0 7.9866521,8.720433 Z m 3.0608399,0 a 0.48101608,0.48101603 0 0 0 -0.333047,0.1409227 0.48101608,0.48101603 0 0 0 0,0.6801867 0.48101608,0.48101603 0 0 0 0.680187,0 0.48101608,0.48101603 0 0 0 0,-0.6801867 0.48101608,0.48101603 0 0 0 -0.34714,-0.1409227 z M 9.5241185,9.354585 A 0.48101606,0.48101606 0 0 0 9.0431024,9.8356014 0.48101606,0.48101606 0 0 0 9.5241185,10.316617 0.48101606,0.48101606 0 0 0 10.005134,9.8356014 0.48101606,0.48101606 0 0 0 9.5241185,9.354585 Z"
       id="path1" />
  </g>
  <g
     id="busywidget"
     transform="matrix(7.5596507,0,0,7.5596507,44,-39.003781)">
    <rect
       style="opacity:0.00100002"
       width="4.2329998"
       height="4.2329998"
       x="-2.9250818e-05"
       y="6.3482056"
       id="rect3" />
    <path
       style="fill:currentColor;stroke-width:0.875012"
       class="ColorScheme-Highlight"
       d="M 2.1164998,6.6128427 A 0.34723827,0.34723826 0 0 0 1.7692616,6.960081 0.34723827,0.34723826 0 0 0 2.1164998,7.3073192 0.34723827,0.34723826 0 0 0 2.4637382,6.960081 0.34723827,0.34723826 0 0 0 2.1164998,6.6128427 Z M 1.0476571,7.0536725 a 0.34723827,0.34723826 0 0 0 -0.24053481,0.10173 0.34723827,0.34723826 0 0 0 0,0.4910167 0.34723827,0.34723826 0 0 0 0.49101651,0 0.34723827,0.34723826 0 0 0 0,-0.4910167 0.34723827,0.34723826 0 0 0 -0.2504817,-0.10173 z m 2.1277387,0 a 0.34723827,0.34723826 0 0 0 -0.240535,0.10173 0.34723827,0.34723826 0 0 0 0,0.4910167 0.34723827,0.34723826 0 0 0 0.4910166,0 0.34723827,0.34723826 0 0 0 0,-0.4910167 0.34723827,0.34723826 0 0 0 -0.2504816,-0.10173 z M 0.61180076,8.1175419 A 0.34723827,0.34723826 0 0 0 0.26456249,8.4647802 0.34723827,0.34723826 0 0 0 0.61180076,8.8120184 0.34723827,0.34723826 0 0 0 0.95903903,8.4647802 0.34723827,0.34723826 0 0 0 0.61180076,8.1175419 Z m 3.00939824,0 A 0.34723827,0.34723826 0 0 0 3.2739607,8.4647802 0.34723827,0.34723826 0 0 0 3.621199,8.8120184 0.34723827,0.34723826 0 0 0 3.9684373,8.4647802 0.34723827,0.34723826 0 0 0 3.621199,8.1175419 Z M 1.0476571,9.1814111 a 0.34723827,0.34723826 0 0 0 -0.24053481,0.1017299 0.34723827,0.34723826 0 0 0 0,0.4910166 0.34723827,0.34723826 0 0 0 0.49101651,0 0.34723827,0.34723826 0 0 0 0,-0.4910166 0.34723827,0.34723826 0 0 0 -0.2504817,-0.1017299 z m 2.1277387,0 a 0.34723827,0.34723826 0 0 0 -0.240535,0.1017299 0.34723827,0.34723826 0 0 0 0,0.4910166 0.34723827,0.34723826 0 0 0 0.4910166,0 0.34723827,0.34723826 0 0 0 0,-0.4910166 A 0.34723827,0.34723826 0 0 0 3.1753958,9.1814111 Z M 2.1164998,9.6222409 A 0.34723827,0.34723826 0 0 0 1.7692616,9.9694793 0.34723827,0.34723826 0 0 0 2.1164998,10.316717 0.34723827,0.34723826 0 0 0 2.4637382,9.9694793 0.34723827,0.34723826 0 0 0 2.1164998,9.6222409 Z"
       id="path3" />
  </g>
  <g
     id="stopped"
     transform="matrix(3.7798254,0,0,3.7798254,-11.998727,0.98899475)">
    <rect
       style="opacity:0.00100002"
       width="8.4659996"
       height="8.4659996"
       x="24.339354"
       y="2.1152353"
       id="rect4" />
    <path
       style="fill:currentColor;stroke-width:0.875012"
       class="ColorScheme-Highlight"
       d="m 28.572412,2.6443034 a 3.7038742,3.7038748 0 0 0 -3.703875,3.7038746 3.7038742,3.7038748 0 0 0 3.703875,3.703875 3.7038742,3.7038748 0 0 0 3.703875,-3.703875 3.7038742,3.7038748 0 0 0 -3.703875,-3.7038746 z m 0,1.388953 A 2.3149213,2.3149216 0 0 1 30.887334,6.348178 2.3149213,2.3149216 0 0 1 28.572412,8.6630996 2.3149213,2.3149216 0 0 1 26.25749,6.348178 2.3149213,2.3149216 0 0 1 28.572412,4.0332564 Z"
       id="path4" />
  </g>
</svg>
