<?xml version="1.0" encoding="UTF-8" standalone="no"?>
<svg
   width="32"
   height="64"
   version="1"
   id="svg4"
   sodipodi:docname="checkmarks.svg"
   inkscape:version="1.3 (0e150ed6c4, 2023-07-21)"
   xmlns:inkscape="http://www.inkscape.org/namespaces/inkscape"
   xmlns:sodipodi="http://sodipodi.sourceforge.net/DTD/sodipodi-0.dtd"
   xmlns="http://www.w3.org/2000/svg"
   xmlns:svg="http://www.w3.org/2000/svg">
  <sodipodi:namedview
     id="namedview4"
     pagecolor="#ffffff"
     bordercolor="#000000"
     borderopacity="0.25"
     inkscape:showpageshadow="2"
     inkscape:pageopacity="0.0"
     inkscape:pagecheckerboard="0"
     inkscape:deskcolor="#d1d1d1"
     inkscape:zoom="7.9962314"
     inkscape:cx="-2.7512961"
     inkscape:cy="23.698664"
     inkscape:window-width="1920"
     inkscape:window-height="1022"
     inkscape:window-x="0"
     inkscape:window-y="26"
     inkscape:window-maximized="1"
     inkscape:current-layer="svg4" />
  <defs
     id="nova">
    <style
       id="current-color-scheme"
       type="text/css">&#10;   .ColorScheme-Background {color:#181818; } .ColorScheme-ButtonBackground { color:#343434; } .ColorScheme-Highlight { color:#4285f4; } .ColorScheme-Text { color:#dfdfdf; } .ColorScheme-ViewBackground { color:#242424; } .ColorScheme-NegativeText { color:#f44336; } .ColorScheme-PositiveText { color:#4caf50; } .ColorScheme-NeutralText { color:#ff9800; }&#10;  </style>
  </defs>
  <g
     id="radiobutton"
     transform="translate(0,8)">
    <rect
       style="opacity:0.001"
       width="32"
       height="32"
       x="0"
       y="-8"
       id="rect1" />
    <path
       style="fill:currentColor;stroke-width:1.07692"
       class="ColorScheme-Highlight"
       d="M 16,-6 C 8.28873,-6 2.0000086,0.28873 2,8 2.0000086,15.71127 8.28873,22 16,22 23.711253,22 30,15.711253 30,8 30,0.2887472 23.711253,-6 16,-6 Z"
       id="path1" />
    <path
       style="fill:currentColor;stroke-width:1.07692"
       class="ColorScheme-Background"
       d="M 16,2.6153848 A 5.3846154,5.3846154 0 0 1 21.384615,8.0000002 5.3846154,5.3846154 0 0 1 16,13.384615 5.3846154,5.3846154 0 0 1 10.615385,8.0000002 5.3846154,5.3846154 0 0 1 16,2.6153848 Z"
       id="path2" />
  </g>
  <g
     id="checkbox"
     transform="translate(0,40)">
    <rect
       style="opacity:0.001"
       width="32"
       height="32"
       x="0"
       y="-8"
       id="rect2" />
    <rect
       style="display:inline;fill:#4285f4;fill-opacity:1;stroke-width:1.69077"
       id="rect5"
       width="28"
       height="28"
       x="2"
       y="-6"
       rx="9.1538458" />
    <path
       style="fill:currentColor;stroke-width:1.07692"
       class="ColorScheme-Background"
       d="m 22.160727,0.46557933 c 1.685837,-0.097925 3.384316,1.67587647 1.863582,3.49579357 L 14.348828,15.538296 8.1165569,10.244124 C 6.1699765,8.591175 8.4593546,4.6791755 10.836208,6.3802433 l 3.356972,2.3999393 6.404746,-7.5237379 c 0.439396,-0.51635337 1.000863,-0.75822597 1.562801,-0.79086537 z"
       id="path4" />
  </g>
</svg>
