<?xml version="1.0" encoding="UTF-8" standalone="no"?>
<svg
   width="220"
   height="85"
   version="1"
   id="svg24"
   sodipodi:docname="panel-background.svg"
   inkscape:version="1.3 (0e150ed6c4, 2023-07-21)"
   xmlns:inkscape="http://www.inkscape.org/namespaces/inkscape"
   xmlns:sodipodi="http://sodipodi.sourceforge.net/DTD/sodipodi-0.dtd"
   xmlns:xlink="http://www.w3.org/1999/xlink"
   xmlns="http://www.w3.org/2000/svg"
   xmlns:svg="http://www.w3.org/2000/svg">
  <sodipodi:namedview
     id="namedview24"
     pagecolor="#ffffff"
     bordercolor="#000000"
     borderopacity="0.25"
     inkscape:showpageshadow="2"
     inkscape:pageopacity="0.0"
     inkscape:pagecheckerboard="0"
     inkscape:deskcolor="#d1d1d1"
     inkscape:zoom="5.2909091"
     inkscape:cx="95.446735"
     inkscape:cy="32.036082"
     inkscape:current-layer="svg24" />
  <defs
     id="nova">
    <linearGradient
       id="linearGradient1278">
      <stop
         style="stop-color:#000000;stop-opacity:0.2"
         offset="0"
         id="stop1" />
      <stop
         style="stop-color:#000000;stop-opacity:0"
         offset="1"
         id="stop2" />
    </linearGradient>
    <radialGradient
       id="radialGradient4263"
       cx="984"
       cy="905.362"
       r="8.5"
       fx="984"
       fy="905.362"
       gradientTransform="matrix(-1.6470685,-5.6461859e-8,5.6464468e-8,-1.6471446,1773.7154,1559.2615)"
       gradientUnits="userSpaceOnUse"
       xlink:href="#linearGradient1278" />
    <linearGradient
       id="linearGradient4259"
       x1="83.6"
       x2="83.6"
       y1="-969.362"
       y2="-955.363"
       gradientTransform="matrix(0.71428571,0,0,1,-317.71429,1250.3622)"
       gradientUnits="userSpaceOnUse"
       xlink:href="#linearGradient1278" />
    <radialGradient
       id="radialGradient3382"
       cx="984"
       cy="905.362"
       r="8.5"
       fx="984"
       fy="905.362"
       gradientTransform="matrix(2.3679458e-6,1.6471768,-1.6470232,2.367725e-6,1694.1502,-1552.8251)"
       gradientUnits="userSpaceOnUse"
       xlink:href="#linearGradient1278" />
    <linearGradient
       id="linearGradient4452"
       x1="-260"
       x2="-260"
       y1="281"
       y2="295"
       gradientUnits="userSpaceOnUse"
       xlink:href="#linearGradient1278" />
    <radialGradient
       id="radialGradient4255"
       cx="982.909"
       cy="906.453"
       r="8.5"
       fx="982.909"
       fy="906.453"
       gradientTransform="matrix(1.6470681,-3.771647e-6,3.7713134e-6,1.6469224,-1415.9215,-1474.8552)"
       gradientUnits="userSpaceOnUse"
       xlink:href="#linearGradient1278" />
    <radialGradient
       id="radialGradient4275"
       cx="984"
       cy="905.362"
       r="8.5"
       fx="984"
       fy="905.362"
       gradientTransform="matrix(3.2745726e-6,-1.6469351,1.647045,3.2747911e-6,-1338.1753,1638.58)"
       gradientUnits="userSpaceOnUse"
       xlink:href="#linearGradient1278" />
    <linearGradient
       id="linearGradient4385"
       x1="83.6"
       x2="83.6"
       y1="-969.362"
       y2="-955.362"
       gradientTransform="matrix(0.71428571,0,0,1,-317.71429,1250.3622)"
       gradientUnits="userSpaceOnUse"
       xlink:href="#linearGradient1278" />
    <linearGradient
       id="linearGradient4387"
       x1="83.6"
       x2="83.6"
       y1="-969.362"
       y2="-955.361"
       gradientTransform="matrix(0.71428571,0,0,1,-317.71429,1250.3622)"
       gradientUnits="userSpaceOnUse"
       xlink:href="#linearGradient1278" />
    <style
       id="current-color-scheme"
       type="text/css">&#10;   .ColorScheme-Background {color:#242424; } .ColorScheme-ButtonBackground { color:#343434; } .ColorScheme-Highlight { color:#4285f4; } .ColorScheme-Text { color:#dfdfdf; } .ColorScheme-ViewBackground { color:#242424; } .ColorScheme-NegativeText { color:#f44336; } .ColorScheme-PositiveText { color:#4caf50; } .ColorScheme-NeutralText { color:#ff9800; }&#10;  </style>
  </defs>
  <path
     id="shadow-topleft"
     style="fill:url(#radialGradient4275);fill-opacity:1.0"
     d="m 136.00002,17.998995 h 10 v -2 c 0,-2.77 2.23,-5 5,-5 h 2 V 0.99899464 h -17 z" />
  <g
     id="shadow-left"
     transform="matrix(-1,0,0,1,434.00002,-239.00101)">
    <rect
       style="fill:url(#linearGradient4385)"
       width="50"
       height="10"
       x="-307"
       y="288"
       transform="rotate(-90)"
       id="rect2" />
    <rect
       style="opacity:0.001"
       width="7"
       height="1"
       x="278"
       y="257"
       transform="translate(3,2)"
       id="rect3" />
  </g>
  <path
     id="shadow-bottomright"
     style="fill:url(#radialGradient3382);fill-opacity:1.0"
     d="m 220.00002,67.998995 h -10 v 2 c 0,2.77 -2.23,5 -5,5 h -2 v 10 h 17 z" />
  <g
     id="shadow-bottom"
     transform="rotate(90,336.50052,123.49951)">
    <rect
       style="fill:url(#linearGradient4387);fill-opacity:1.0"
       width="50"
       height="10"
       x="-307"
       y="288"
       transform="rotate(-90)"
       id="rect4" />
    <rect
       style="opacity:0.001"
       width="7"
       height="1"
       x="278"
       y="257"
       transform="translate(3,2)"
       id="rect5" />
  </g>
  <g
     id="shadow-right"
     transform="translate(-77.999982,-239.00101)">
    <rect
       style="fill:url(#linearGradient4452);fill-opacity:1.0"
       width="50"
       height="10"
       x="-307"
       y="288"
       transform="rotate(-90)"
       id="rect6" />
    <rect
       style="opacity:0.001"
       width="7"
       height="1"
       x="278"
       y="257"
       transform="translate(3,2)"
       id="rect7" />
  </g>
  <g
     id="shadow-top"
     transform="matrix(0,-1,-1,0,460.00002,298.99899)">
    <rect
       style="fill:url(#linearGradient4259);fill-opacity:1.0"
       width="50"
       height="10"
       x="-307"
       y="288"
       transform="rotate(-90)"
       id="rect8" />
    <rect
       style="opacity:0.001"
       width="7"
       height="1"
       x="278"
       y="257"
       transform="translate(3,2)"
       id="rect9" />
  </g>
  <path
     id="shadow-topright"
     style="fill:url(#radialGradient4255);fill-opacity:1.0"
     d="M 203.00002,0.99899464 V 10.998995 h 2 c 2.77,0 5,2.23 5,5 v 2 h 10 V 0.99899464 Z" />
  <path
     id="shadow-bottomleft"
     style="fill:url(#radialGradient4263);fill-opacity:1.0"
     d="m 153.00002,84.998995 v -10 h -2 c -2.77,0 -5,-2.23 -5,-5 v -2 h -10 v 17 z" />
  <g
     id="center"
     transform="translate(1,-1.99899)">
    <rect
       id="center1"
       style="fill:currentColor"
       class="ColorScheme-Background"
       width="50"
       height="50"
       x="7"
       y="28" />
    <rect
       id="rect24"
       style="fill:#000000;fill-opacity:1;opacity:0.05"
       class="ColorScheme-Background"
       width="50"
       height="50"
       x="7"
       y="28" />
    <rect
       id="center2"
       style="display:none;opacity:0.05;fill:currentColor"
       class="ColorScheme-Highlight"
       width="50"
       height="50"
       x="7"
       y="28" />
  </g>
  <g
     id="topleft"
     transform="translate(-182.00001,-232.99982)">
    <path
       style="fill:currentColor"
       class="ColorScheme-Background"
       d="m 190.00001,251.99982 v 7 h -7 v -2 c 0,-2.77 2.23,-5 5,-5 z"
       id="path9" />
    <path
       style="fill:#000000;fill-opacity:1;opacity:0.05"
       class="ColorScheme-Background"
       d="m 190.00001,251.99982 v 7 h -7 v -2 c 0,-2.77 2.23,-5 5,-5 z"
       id="path25" />
    <path
       style="display:none;opacity:0.05;fill:currentColor"
       class="ColorScheme-Highlight"
       d="m 190.00001,251.99982 v 7 h -7 v -2 c 0,-2.77 2.23,-5 5,-5 z"
       id="path10" />
  </g>
  <g
     id="left"
     transform="translate(-182.00001,-232.99982)">
    <path
       style="fill:currentColor"
       class="ColorScheme-Background"
       d="m 183.00002,258.99981 v 50 l 7,10e-6 v -50 z"
       id="path11" />
    <path
       style="fill:#000000;fill-opacity:1;opacity:0.05"
       class="ColorScheme-Background"
       d="m 183.00002,258.99981 v 50 l 7,10e-6 v -50 z"
       id="path26" />
    <path
       style="display:none;opacity:0.05;fill:currentColor"
       class="ColorScheme-Highlight"
       d="m 183.00002,258.99981 v 50 l 7,10e-6 v -50 z"
       id="path12" />
  </g>
  <g
     id="right"
     transform="translate(-182.00001,-232.99983)">
    <path
       style="fill:currentColor"
       class="ColorScheme-Background"
       d="m 247,258.99982 v 50 l -7,10e-6 v -50 z"
       id="path13" />
    <path
       style="fill:#000000;fill-opacity:1;opacity:0.05"
       class="ColorScheme-Background"
       d="m 247,258.99982 v 50 l -7,10e-6 v -50 z"
       id="path27" />
    <path
       style="display:none;opacity:0.05;fill:currentColor"
       class="ColorScheme-Highlight"
       d="m 247,258.99982 v 50 l -7,10e-6 v -50 z"
       id="path14" />
  </g>
  <g
     id="bottomleft"
     transform="translate(-182.00001,-232.99991)">
    <path
       style="fill:currentColor"
       class="ColorScheme-Background"
       d="m 190.00001,315.99991 v -7 h -7 v 2 c 0,2.77 2.23,5 5,5 z"
       id="path15" />
    <path
       style="fill:#000000;fill-opacity:1;opacity:0.05"
       class="ColorScheme-Background"
       d="m 190.00001,315.99991 v -7 h -7 v 2 c 0,2.77 2.23,5 5,5 z"
       id="path28" />
    <path
       style="display:none;opacity:0.05;fill:currentColor"
       class="ColorScheme-Highlight"
       d="m 190.00001,315.99991 v -7 h -7 v 2 c 0,2.77 2.23,5 5,5 z"
       id="path16" />
  </g>
  <g
     id="bottom"
     transform="translate(-182.00001,-232.99995)">
    <path
       style="fill:currentColor"
       class="ColorScheme-Background"
       d="M 189.99998,315.99995 H 240 v -7 h -50.00001 z"
       id="path17" />
    <path
       style="fill:#000000;fill-opacity:1;opacity:0.05"
       class="ColorScheme-Background"
       d="M 189.99998,315.99995 H 240 v -7 h -50.00001 z"
       id="path29" />
    <path
       style="display:none;opacity:0.05;fill:currentColor"
       class="ColorScheme-Highlight"
       d="M 189.99998,315.99995 H 240 v -7 h -50.00001 z"
       id="path18" />
  </g>
  <g
     id="bottomright"
     transform="translate(-182.00001,-232.99991)">
    <path
       style="fill:currentColor"
       class="ColorScheme-Background"
       d="m 240,315.99991 v -7 h 7 v 2 c 0,2.77 -2.23,5 -5,5 z"
       id="path19" />
    <path
       style="fill:#000000;fill-opacity:1;opacity:0.05"
       class="ColorScheme-Background"
       d="m 240,315.99991 v -7 h 7 v 2 c 0,2.77 -2.23,5 -5,5 z"
       id="path30" />
    <path
       style="display:none;opacity:0.05;fill:currentColor"
       class="ColorScheme-Highlight"
       d="m 240,315.99991 v -7 h 7 v 2 c 0,2.77 -2.23,5 -5,5 z"
       id="path20" />
  </g>
  <g
     id="topright"
     transform="translate(-182.00001,-232.99982)">
    <path
       style="fill:currentColor"
       class="ColorScheme-Background"
       d="m 240,251.99982 v 7 h 7 v -2 c 0,-2.77 -2.23,-5 -5,-5 z"
       id="path21" />
    <path
       style="fill:#000000;fill-opacity:1;opacity:0.05"
       class="ColorScheme-Background"
       d="m 240,251.99982 v 7 h 7 v -2 c 0,-2.77 -2.23,-5 -5,-5 z"
       id="path31" />
    <path
       style="display:none;opacity:0.05;fill:currentColor"
       class="ColorScheme-Highlight"
       d="m 240,251.99982 v 7 h 7 v -2 c 0,-2.77 -2.23,-5 -5,-5 z"
       id="path22" />
  </g>
  <g
     id="top"
     transform="translate(-182.00001,-232.99982)">
    <path
       style="fill:currentColor"
       class="ColorScheme-Background"
       d="M 189.99998,251.99982 H 240 v 7 h -50.00001 z"
       id="path23" />
    <path
       style="fill:#000000;fill-opacity:1;opacity:0.05"
       class="ColorScheme-Background"
       d="M 189.99998,251.99982 H 240 v 7 h -50.00001 z"
       id="path32" />
    <path
       style="display:none;opacity:0.05;fill:currentColor"
       class="ColorScheme-Highlight"
       d="M 189.99998,251.99982 H 240 v 7 h -50.00001 z"
       id="path24" />
  </g>
  <rect
     id="shadow-hint-right-margin"
     style="fill:#ff00ff"
     width="10"
     height="4"
     x="210"
     y="41" />
  <rect
     id="shadow-hint-bottom-margin"
     style="fill:#ff00ff"
     width="4"
     height="10"
     x="176"
     y="75" />
  <rect
     id="shadow-hint-left-margin"
     style="fill:#ff00ff"
     width="10"
     height="4"
     x="136"
     y="41" />
  <rect
     id="shadow-hint-top-margin"
     style="fill:#ff00ff"
     width="4"
     height="10"
     x="177"
     y="1" />
  <rect
     id="mask-center"
     style="fill:#000000"
     width="50.000004"
     height="50"
     x="76.000008"
     y="26.001011" />
  <path
     id="mask-topleft"
     style="fill:#000000"
     d="m 76.000006,19.000875 v 7 h -7.000001 v -2 c 0,-2.77 2.23,-5 5.000001,-5 z" />
  <path
     id="mask-left"
     style="fill:#000000"
     d="m 69.000015,26.000865 v 50.00001 l 7.000001,1e-5 v -50.00001 z" />
  <path
     id="mask-right"
     style="fill:#000000"
     d="m 133,26.000875 v 50.00001 l -7,1e-5 v -50.00001 z" />
  <path
     id="mask-bottomleft"
     style="fill:#000000"
     d="m 76.000006,83.000975 v -7 h -7.000001 v 2 c 0,2.77 2.23,5 5.000001,5 z" />
  <path
     id="mask-bottom"
     style="fill:#000000"
     d="M 75.999976,83.001015 H 126 v -7 H 75.999986 Z" />
  <path
     id="mask-bottomright"
     style="fill:#000000"
     d="m 126,83.000975 v -7 h 7 v 2 c 0,2.77 -2.23,5 -5,5 z" />
  <path
     id="mask-topright"
     style="fill:#000000"
     d="m 126,19.000875 v 7 h 7 v -2 c 0,-2.77 -2.23,-5 -5,-5 z" />
  <path
     id="mask-top"
     style="fill:#000000"
     d="M 75.999976,19.000875 H 126 v 7 H 75.999986 Z" />
  <rect
     id="hint-tile-center"
     style="fill:#ff00ff"
     width="5"
     height="5"
     x="0"
     y="0" />
  <rect
     id="shadow-center"
     style="fill:none"
     width="50"
     height="50"
     x="153"
     y="18.06" />
  <rect
     id="shadow-hint-top-inset"
     style="fill:#00ff00"
     width="4"
     height="10"
     x="172"
     y="75" />
  <rect
     id="shadow-hint-bottom-inset"
     style="fill:#00ff00"
     width="4"
     height="10"
     x="173"
     y="1" />
  <rect
     id="shadow-hint-right-inset"
     style="fill:#00ff00"
     width="4"
     height="10"
     x="37"
     y="-220"
     transform="rotate(90)" />
  <rect
     id="shadow-hint-left-inset"
     style="fill:#00ff00"
     width="4"
     height="10"
     x="37"
     y="-146"
     transform="rotate(90)" />
  <rect
     id="thick-hint-top-margin"
     style="fill:#ff00ff"
     width="4.0000005"
     height="8"
     x="30.000002"
     y="19.001011" />
  <rect
     id="thick-hint-bottom-margin"
     style="fill:#ff00ff"
     width="4.0000005"
     height="8"
     x="30.000002"
     y="75.001007" />
  <rect
     id="thick-hint-right-margin"
     style="fill:#ff00ff"
     width="4"
     height="8.000001"
     x="49.001011"
     y="-65.000008"
     transform="rotate(90)" />
  <rect
     id="thick-hint-left-margin"
     style="fill:#ff00ff"
     width="4"
     height="8.000001"
     x="49.001011"
     y="-9.000001"
     transform="rotate(90)" />
  <rect
     id="thick-center"
     style="fill:#800080"
     width="2"
     height="2"
     x="5"
     y="0" />
  <rect
     id="hint-top-margin"
     style="fill:#800080"
     width="4.0000005"
     height="4"
     x="30.000002"
     y="19.001011" />
  <rect
     id="hint-bottom-margin"
     style="fill:#800080"
     width="4.0000005"
     height="4"
     x="30.000002"
     y="79.001007" />
  <rect
     id="hint-left-margin"
     style="fill:#800080"
     width="4.0000005"
     height="4"
     x="1"
     y="49.001011" />
  <rect
     id="hint-right-margin"
     style="fill:#800080"
     width="4.0000005"
     height="4"
     x="61.000004"
     y="49.001011" />
</svg>
