<?xml version="1.0" encoding="UTF-8" standalone="no"?>
<svg
   width="112"
   height="40"
   version="1"
   id="svg48"
   sodipodi:docname="viewitem.svg"
   inkscape:version="1.3 (0e150ed6c4, 2023-07-21)"
   xmlns:inkscape="http://www.inkscape.org/namespaces/inkscape"
   xmlns:sodipodi="http://sodipodi.sourceforge.net/DTD/sodipodi-0.dtd"
   xmlns="http://www.w3.org/2000/svg"
   xmlns:svg="http://www.w3.org/2000/svg">
  <sodipodi:namedview
     id="namedview48"
     pagecolor="#ffffff"
     bordercolor="#000000"
     borderopacity="0.25"
     inkscape:showpageshadow="2"
     inkscape:pageopacity="0.0"
     inkscape:pagecheckerboard="0"
     inkscape:deskcolor="#d1d1d1"
     inkscape:zoom="5.4041655"
     inkscape:cx="27.663846"
     inkscape:cy="52.274491"
     inkscape:current-layer="svg48" />
  <defs
     id="nova">
    <style
       id="current-color-scheme"
       type="text/css">&#10;   .ColorScheme-Background {color:#181818; } .ColorScheme-ButtonBackground { color:#343434; } .ColorScheme-Highlight { color:#4285f4; } .ColorScheme-Text { color:#dfdfdf; } .ColorScheme-ViewBackground { color:#242424; } .ColorScheme-NegativeText { color:#f44336; } .ColorScheme-PositiveText { color:#4caf50; } .ColorScheme-NeutralText { color:#ff9800; }&#10;  </style>
  </defs>
  <rect
     id="hint-stretch-borders"
     style="opacity:1;fill:#ff0000"
     width="4"
     height="4"
     x="0"
     y="0" />
  <g
     id="selected-top"
     transform="matrix(2,0,0,2,-132,-1484)">
    <path
       style="opacity:0.001"
       transform="translate(18)"
       d="m 53,744 v 1 h 8 v -1 z"
       id="path1" />
    <path
       id="path2"
       style="opacity:0.90;fill:currentColor"
       class="ColorScheme-Highlight"
       d="M 72 745 C 71.657198 745 71.323058 745.03451 71 745.09961 L 71 749 L 79 749 L 79 745.09961 C 78.676942 745.03451 78.342802 745 78 745 L 72 745 z " />
  </g>
  <g
     id="selected-bottom"
     transform="matrix(2,0,0,2,-132,-1484)">
    <path
       style="opacity:0.001"
       transform="translate(18)"
       d="m 53,761 v 1 h 8 v -1 z"
       id="path3" />
    <path
       id="path4"
       style="opacity:0.90;fill:currentColor"
       class="ColorScheme-Highlight"
       d="M 71 757 L 71 760.90039 C 71.323058 760.96549 71.657198 761 72 761 L 78 761 C 78.342802 761 78.676942 760.96549 79 760.90039 L 79 757 L 71 757 z " />
  </g>
  <path
     id="selected-center"
     style="opacity:0.90;fill:currentColor"
     class="ColorScheme-Highlight"
     d="m 10.000005,14.000014 h 16 v 16 h -16 z" />
  <g
     id="selected-right"
     transform="matrix(2,0,0,2,-132,-1484)">
    <path
       style="opacity:0.001"
       transform="translate(18)"
       d="m 65,749 v 8 h 1 v -8 z"
       id="path5" />
    <path
       id="path6"
       style="opacity:0.90;fill:currentColor"
       class="ColorScheme-Highlight"
       d="M 79 749 L 79 757 L 82.900391 757 C 82.965494 756.67694 83 756.3428 83 756 L 83 750 C 83 749.6572 82.965494 749.32306 82.900391 749 L 79 749 z " />
  </g>
  <g
     id="selected-left"
     transform="matrix(2,0,0,2,-132,-1484)">
    <path
       style="opacity:0.001"
       transform="translate(18)"
       d="m 48,749 v 8 h 1 v -8 z"
       id="path7" />
    <path
       id="path8"
       style="opacity:0.90;fill:currentColor"
       class="ColorScheme-Highlight"
       d="M 67.099609 749 C 67.034506 749.32306 67 749.6572 67 750 L 67 756 C 67 756.3428 67.034506 756.67694 67.099609 757 L 71 757 L 71 749 L 67.099609 749 z " />
  </g>
  <g
     id="selected-topleft"
     transform="matrix(2,0,0,2,-132,-1484)">
    <path
       style="opacity:0.001"
       transform="translate(18)"
       d="m 48,744 v 5 h 1 c 0,0 0,-4 4,-4 v -1 z"
       id="path9" />
    <path
       id="path10"
       style="opacity:0.90;fill:currentColor"
       class="ColorScheme-Highlight"
       d="M 71 745.09961 C 69.035658 745.49547 67.495468 747.03566 67.099609 749 L 71 749 L 71 745.09961 z " />
  </g>
  <g
     id="selected-topright"
     transform="matrix(2,0,0,2,-132,-1484)">
    <path
       style="opacity:0.001"
       transform="translate(18)"
       d="m 61,744 v 1 c 4,0 4,4 4,4 h 1 v -5 z"
       id="path11" />
    <path
       id="path12"
       style="opacity:0.90;fill:currentColor"
       class="ColorScheme-Highlight"
       d="M 79 745.09961 L 79 749 L 82.900391 749 C 82.504532 747.03566 80.964342 745.49547 79 745.09961 z " />
  </g>
  <g
     id="selected-bottomleft"
     transform="matrix(2,0,0,2,-132,-1484)">
    <path
       style="opacity:0.001"
       transform="translate(18)"
       d="m 48,757 v 5 h 5 v -1 c 0,0 -4,0 -4,-4 z"
       id="path13" />
    <path
       id="path14"
       style="opacity:0.90;fill:currentColor"
       class="ColorScheme-Highlight"
       d="M 67.099609 757 C 67.495468 758.96434 69.035658 760.50453 71 760.90039 L 71 757 L 67.099609 757 z " />
  </g>
  <g
     id="selected-bottomright"
     transform="matrix(2,0,0,2,-132,-1484)">
    <path
       style="opacity:0.001"
       transform="translate(18)"
       d="m 65,757 c 0,0 0.01477,4 -4,4 v 1 h 5 v -5 z"
       id="path15" />
    <path
       id="path16"
       style="opacity:0.90;fill:currentColor"
       class="ColorScheme-Highlight"
       d="M 79 757 L 79 760.90039 C 80.964342 760.50453 82.504532 758.96434 82.900391 757 L 79 757 z " />
  </g>
  <g
     id="hover-top"
     transform="matrix(2,0,0,2,-94,-1484)">
    <path
       style="opacity:0.001"
       transform="translate(18)"
       d="m 53,744 v 1 h 8 v -1 z"
       id="path17" />
    <path
       id="path18"
       style="opacity:0.90;fill:currentColor"
       class="ColorScheme-Highlight"
       d="M 72 745 C 71.657198 745 71.323058 745.03451 71 745.09961 L 71 749 L 79 749 L 79 745.09961 C 78.676942 745.03451 78.342802 745 78 745 L 72 745 z " />
  </g>
  <g
     id="hover-bottom"
     transform="matrix(2,0,0,2,-94,-1484)">
    <path
       style="opacity:0.001"
       transform="translate(18)"
       d="m 53,761 v 1 h 8 v -1 z"
       id="path19" />
    <path
       id="path20"
       style="opacity:0.90;fill:currentColor"
       class="ColorScheme-Highlight"
       d="M 71 757 L 71 760.90039 C 71.323058 760.96549 71.657198 761 72 761 L 78 761 C 78.342802 761 78.676942 760.96549 79 760.90039 L 79 757 L 71 757 z " />
  </g>
  <path
     id="hover-center"
     style="opacity:0.90;fill:currentColor"
     class="ColorScheme-Highlight"
     d="m 48.000003,14.000071 h 16 v 16 h -16 z" />
  <g
     id="hover-right"
     transform="matrix(2,0,0,2,-94,-1484)">
    <path
       style="opacity:0.001"
       transform="translate(18)"
       d="m 65,749 v 8 h 1 v -8 z"
       id="path21" />
    <path
       id="path22"
       style="opacity:0.90;fill:currentColor"
       class="ColorScheme-Highlight"
       d="M 79 749 L 79 757 L 82.900391 757 C 82.965494 756.67694 83 756.3428 83 756 L 83 750 C 83 749.6572 82.965494 749.32306 82.900391 749 L 79 749 z " />
  </g>
  <g
     id="hover-left"
     transform="matrix(2,0,0,2,-94,-1484)">
    <path
       style="opacity:0.001"
       transform="translate(18)"
       d="m 48,749 v 8 h 1 v -8 z"
       id="path23" />
    <path
       id="path24"
       style="opacity:0.90;fill:currentColor"
       class="ColorScheme-Highlight"
       d="M 67.099609 749 C 67.034506 749.32306 67 749.6572 67 750 L 67 756 C 67 756.3428 67.034506 756.67694 67.099609 757 L 71 757 L 71 749 L 67.099609 749 z " />
  </g>
  <g
     id="hover-topleft"
     transform="matrix(2,0,0,2,-94,-1484)">
    <path
       style="opacity:0.001"
       transform="translate(18)"
       d="m 48,744 v 5 h 1 c 0,0 0,-4 4,-4 v -1 z"
       id="path25" />
    <path
       id="path26"
       style="opacity:0.90;fill:currentColor"
       class="ColorScheme-Highlight"
       d="M 71 745.09961 C 69.035658 745.49547 67.495468 747.03566 67.099609 749 L 71 749 L 71 745.09961 z " />
  </g>
  <g
     id="hover-topright"
     transform="matrix(2,0,0,2,-94,-1484)">
    <path
       style="opacity:0.001"
       transform="translate(18)"
       d="m 61,744 v 1 c 4,0 4,4 4,4 h 1 v -5 z"
       id="path27" />
    <path
       id="path28"
       style="opacity:0.90;fill:currentColor"
       class="ColorScheme-Highlight"
       d="M 79 745.09961 L 79 749 L 82.900391 749 C 82.504532 747.03566 80.964342 745.49547 79 745.09961 z " />
  </g>
  <g
     id="hover-bottomleft"
     transform="matrix(2,0,0,2,-94,-1484)">
    <path
       style="opacity:0.001"
       transform="translate(18)"
       d="m 48,757 v 5 h 5 v -1 c 0,0 -4,0 -4,-4 z"
       id="path29" />
    <path
       id="path30"
       style="opacity:0.90;fill:currentColor"
       class="ColorScheme-Highlight"
       d="M 67.099609 757 C 67.495468 758.96434 69.035658 760.50453 71 760.90039 L 71 757 L 67.099609 757 z " />
  </g>
  <g
     id="hover-bottomright"
     transform="matrix(2,0,0,2,-94,-1484)">
    <path
       style="opacity:0.001"
       transform="translate(18)"
       d="m 65,757 c 0,0 0.01477,4 -4,4 v 1 h 5 v -5 z"
       id="path31" />
    <path
       id="path32"
       style="opacity:0.90;fill:currentColor"
       class="ColorScheme-Highlight"
       d="M 79 757 L 79 760.90039 C 80.964342 760.50453 82.504532 758.96434 82.900391 757 L 79 757 z " />
  </g>
  <g
     id="selected_hover-top"
     transform="matrix(2,0,0,2,-56,-1484)">
    <path
       style="opacity:0.001"
       transform="translate(18)"
       d="m 53,744 v 1 h 8 v -1 z"
       id="path33" />
    <path
       id="path34"
       style="opacity:0.90;fill:currentColor"
       class="ColorScheme-Highlight"
       d="M 72 745 C 71.657198 745 71.323058 745.03451 71 745.09961 L 71 749 L 79 749 L 79 745.09961 C 78.676942 745.03451 78.342802 745 78 745 L 72 745 z " />
  </g>
  <g
     id="selected_hover-bottom"
     transform="matrix(2,0,0,2,-56,-1484)">
    <path
       style="opacity:0.001"
       transform="translate(18)"
       d="m 53,761 v 1 h 8 v -1 z"
       id="path35" />
    <path
       id="path36"
       style="opacity:0.90;fill:currentColor"
       class="ColorScheme-Highlight"
       d="M 71 757 L 71 760.90039 C 71.323058 760.96549 71.657198 761 72 761 L 78 761 C 78.342802 761 78.676942 760.96549 79 760.90039 L 79 757 L 71 757 z " />
  </g>
  <path
     id="selected_hover-center"
     style="opacity:0.90;fill:currentColor"
     class="ColorScheme-Highlight"
     d="M 86.000003,14.000027 H 102 v 16 H 86.000003 Z" />
  <g
     id="selected_hover-right"
     transform="matrix(2,0,0,2,-56,-1484)">
    <path
       style="opacity:0.001"
       transform="translate(18)"
       d="m 65,749 v 8 h 1 v -8 z"
       id="path37" />
    <path
       id="path38"
       style="opacity:0.90;fill:currentColor"
       class="ColorScheme-Highlight"
       d="M 79 749 L 79 757 L 82.900391 757 C 82.965494 756.67694 83 756.3428 83 756 L 83 750 C 83 749.6572 82.965494 749.32306 82.900391 749 L 79 749 z " />
  </g>
  <g
     id="selected_hover-left"
     transform="matrix(2,0,0,2,-56,-1484)">
    <path
       style="opacity:0.001"
       transform="translate(18)"
       d="m 48,749 v 8 h 1 v -8 z"
       id="path39" />
    <path
       id="path40"
       style="opacity:0.90;fill:currentColor"
       class="ColorScheme-Highlight"
       d="M 67.099609 749 C 67.034506 749.32306 67 749.6572 67 750 L 67 756 C 67 756.3428 67.034506 756.67694 67.099609 757 L 71 757 L 71 749 L 67.099609 749 z " />
  </g>
  <g
     id="selected_hover-topleft"
     transform="matrix(2,0,0,2,-56,-1484)">
    <path
       style="opacity:0.001"
       transform="translate(18)"
       d="m 48,744 v 5 h 1 c 0,0 0,-4 4,-4 v -1 z"
       id="path41" />
    <path
       id="path42"
       style="opacity:0.90;fill:currentColor"
       class="ColorScheme-Highlight"
       d="M 71 745.09961 C 69.035658 745.49547 67.495468 747.03566 67.099609 749 L 71 749 L 71 745.09961 z " />
  </g>
  <g
     id="selected_hover-topright"
     transform="matrix(2,0,0,2,-56,-1484)">
    <path
       style="opacity:0.001"
       transform="translate(18)"
       d="m 61,744 v 1 c 4,0 4,4 4,4 h 1 v -5 z"
       id="path43" />
    <path
       id="path44"
       style="opacity:0.90;fill:currentColor"
       class="ColorScheme-Highlight"
       d="M 79 745.09961 L 79 749 L 82.900391 749 C 82.504532 747.03566 80.964342 745.49547 79 745.09961 z " />
  </g>
  <g
     id="selected_hover-bottomleft"
     transform="matrix(2,0,0,2,-56,-1484)">
    <path
       style="opacity:0.001"
       transform="translate(18)"
       d="m 48,757 v 5 h 5 v -1 c 0,0 -4,0 -4,-4 z"
       id="path45" />
    <path
       id="path46"
       style="opacity:0.90;fill:currentColor"
       class="ColorScheme-Highlight"
       d="M 67.099609 757 C 67.495468 758.96434 69.035658 760.50453 71 760.90039 L 71 757 L 67.099609 757 z " />
  </g>
  <g
     id="selected_hover-bottomright"
     transform="matrix(2,0,0,2,-56,-1484)">
    <path
       style="opacity:0.001"
       transform="translate(18)"
       d="m 65,757 c 0,0 0.01477,4 -4,4 v 1 h 5 v -5 z"
       id="path47" />
    <path
       id="path48"
       style="opacity:0.90;fill:currentColor"
       class="ColorScheme-Highlight"
       d="M 79 757 L 79 760.90039 C 80.964342 760.50453 82.504532 758.96434 82.900391 757 L 79 757 z " />
  </g>
  <rect
     style="opacity:0.659576;fill:#dfdfdf;stroke-width:0.745687;-inkscape-stroke:none"
     id="rect48"
     width="32"
     height="32"
     x="-0.1872576"
     y="56.59446"
     rx="10" />
</svg>
