<?xml version="1.0" encoding="UTF-8" standalone="no"?>
<svg
   version="1.1"
   viewBox="0 0 32 32"
   id="svg17"
   sodipodi:docname="klipper.svg"
   inkscape:version="1.3 (0e150ed6c4, 2023-07-21)"
   xmlns:inkscape="http://www.inkscape.org/namespaces/inkscape"
   xmlns:sodipodi="http://sodipodi.sourceforge.net/DTD/sodipodi-0.dtd"
   xmlns="http://www.w3.org/2000/svg"
   xmlns:svg="http://www.w3.org/2000/svg">
  <sodipodi:namedview
     id="namedview13"
     pagecolor="#ffffff"
     bordercolor="#666666"
     borderopacity="1.0"
     inkscape:pageshadow="2"
     inkscape:pageopacity="0.0"
     inkscape:pagecheckerboard="0"
     showgrid="false"
     inkscape:zoom="14.831875"
     inkscape:cx="24.036071"
     inkscape:cy="6.7085248"
     inkscape:window-width="1920"
     inkscape:window-height="999"
     inkscape:window-x="0"
     inkscape:window-y="0"
     inkscape:window-maximized="1"
     inkscape:current-layer="svg17"
     inkscape:showpageshadow="2"
     inkscape:deskcolor="#d1d1d1" />
  <defs
     id="defs3">
    <style
       id="current-color-scheme"
       type="text/css">.ColorScheme-Text { color:#a1adc8; }</style>
  </defs>
  <g
     id="klipper"
     class="ColorScheme-Text"
     fill="currentColor">
    <path
       d="m49 5h22v22h-22z"
       fill="none"
       id="path5" />
    <path
       d="M 59.94922,7.0000001 A 2,2 0 0 0 57.998047,8.9999999 H 57 56 C 54.338,8.9999999 53,10.338 53,12 v 9 c 0,1.662 1.338,3 3,3 h 8 c 1.662,0 3,-1.338 3,-3 V 12 C 67,10.338 65.662,8.9999999 64,8.9999999 h -1 -1.00195 a 2,2 0 0 0 -2,-1.9999998 2,2 0 0 0 -0.0488,0 z m 0.0488,1 a 1,1 0 0 1 1,0.9999998 1,1 0 0 1 0,0.01172 c -0.002,0.13009 -0.0275,0.253577 -0.0742,0.367187 a 1,1 0 0 1 -0.006,0.01758 1,1 0 0 1 -0.002,0.0039 c -0.0496,0.11313 -0.1194,0.216134 -0.20508,0.302734 a 1,1 0 0 1 -0.008,0.0078 c -0.088,0.08707 -0.19327,0.157271 -0.3086,0.207031 l -0.002,0.002 a 1,1 0 0 1 -0.006,0.002 c -10e-4,5.36e-4 -0.003,0.0014 -0.004,0.002 -0.11748,0.04914 -0.24687,0.07617 -0.38281,0.07617 a 1,1 0 0 1 -0.002,0 c -0.13241,-2.591e-4 -0.25746,-0.02723 -0.37305,-0.07422 a 1,1 0 0 1 -0.0234,-0.0098 c -0.11373,-0.04967 -0.2177,-0.119018 -0.30468,-0.205078 -6.6e-4,-6.36e-4 -0.003,-0.0033 -0.004,-0.0039 l -0.002,-0.002 -0.002,-0.002 c -0.0871,-0.08802 -0.15727,-0.193263 -0.20703,-0.308594 -9.4e-4,-0.0022 -0.003,-0.0056 -0.004,-0.0078 a 1,1 0 0 1 -0.002,-0.0039 C 59.02737,9.264663 59,9.13594 59,8.9999999 H 58.998 A 1,1 0 0 1 59.99805,8.0000001 Z M 56,11 h 1 c 0,0.554 0.446,1 1,1 h 4 c 0.554,0 1,-0.446 1,-1 h 1 c 0.554,0 1,0.446 1,1 v 9 c 0,0.554 -0.446,1 -1,1 h -8 c -0.554,0 -1,-0.446 -1,-1 v -9 c 0,-0.554 0.446,-1 1,-1 z"
       id="path7" />
  </g>
  <g
     id="32-32-klipper"
     class="ColorScheme-Text"
     fill="currentColor">
    <rect
       x="-2.8954e-8"
       y="-1e-6"
       width="32"
       height="32"
       fill="none"
       id="rect12" />
    <path
       d="m 15.949,4 a 3,3 0 0 0 -2.9492,3 h -4 c -1.662,0 -3,1.338 -3,3 v 15 c 0,1.662 1.338,3 3,3 h 14 c 1.662,0 3,-1.338 3,-3 V 10 c 0,-1.662 -1.338,-3 -3,-3 h -4 a 3,3 0 0 0 -3,-3 3,3 0 0 0 -0.05078,0 z m 0.05078,2 a 1,1 0 0 1 1,1 1,1 0 0 1 -1,1 A 1,1 0 0 1 15.9158,7.99609 1,1 0 0 1 14.99978,7 a 1,1 0 0 1 1,-1 z m -7,3 h 2 v 1 c 0,0.554 0.446,1 1,1 h 8 c 0.554,0 1,-0.446 1,-1 V 9 h 2 c 0.554,0 1,0.446 1,1 v 15 c 0,0.554 -0.446,1 -1,1 h -14 c -0.554,0 -1,-0.446 -1,-1 V 10 c 0,-0.554 0.446,-1 1,-1 z"
       id="path14"
       style="display:none" />
    <path
       id="path1"
       style="display:inline;stroke-width:1.41178"
       d="M 56.927734 5 A 2.8235714 2.8235714 0 0 0 56.919922 5.0019531 C 55.355696 5.0435404 54.095239 6.27816 54.005859 7.8242188 L 52.763672 7.8242188 L 51.353516 7.8242188 C 49.007131 7.8242188 47.117188 9.7122079 47.117188 12.058594 L 47.117188 24.765625 C 47.117188 27.11201 49.007131 29 51.353516 29 L 62.646484 29 C 64.992869 29 66.882812 27.11201 66.882812 24.765625 L 66.882812 12.058594 C 66.882812 9.7122079 64.992869 7.8242188 62.646484 7.8242188 L 61.234375 7.8242188 L 59.994141 7.8242188 C 59.908284 6.3402583 58.744263 5.146723 57.273438 5.0136719 C 57.183278 5.005516 57.092284 5 57 5 C 56.998698 4.999989 56.997396 5.0000093 56.996094 5 A 2.8235714 2.8235714 0 0 0 56.927734 5 z M 57 7 C 57.552283 7 58 7.4477165 58 8 C 58 8.5522835 57.552283 9 57 9 C 56.97196 8.9998759 56.943936 8.9985737 56.916016 8.9960938 C 56.398264 8.9524626 56.000196 8.5195826 56 8 C 56 7.4477165 56.447717 7 57 7 z M 51.353516 10.646484 L 52.763672 10.646484 C 52.763672 11.428613 53.393652 12.058594 54.175781 12.058594 L 59.824219 12.058594 C 60.606348 12.058594 61.234375 11.428613 61.234375 10.646484 L 62.646484 10.646484 C 63.428612 10.646484 64.058594 11.276465 64.058594 12.058594 L 64.058594 24.765625 C 64.058594 25.547753 63.428612 26.175781 62.646484 26.175781 L 51.353516 26.175781 C 50.571387 26.175781 49.941406 25.547753 49.941406 24.765625 L 49.941406 12.058594 C 49.941406 11.276465 50.571387 10.646484 51.353516 10.646484 z "
       transform="translate(-41,-1)" />
  </g>
</svg>
