<?xml version="1.0" encoding="UTF-8" standalone="no"?>
<svg
   id="svg"
   version="1.1"
   viewBox="0 0 22 22"
   sodipodi:docname="notification.svg"
   inkscape:version="1.3 (0e150ed6c4, 2023-07-21)"
   xmlns:inkscape="http://www.inkscape.org/namespaces/inkscape"
   xmlns:sodipodi="http://sodipodi.sourceforge.net/DTD/sodipodi-0.dtd"
   xmlns="http://www.w3.org/2000/svg"
   xmlns:svg="http://www.w3.org/2000/svg"
   xmlns:rdf="http://www.w3.org/1999/02/22-rdf-syntax-ns#"
   xmlns:cc="http://creativecommons.org/ns#"
   xmlns:dc="http://purl.org/dc/elements/1.1/">
  <sodipodi:namedview
     id="namedview70"
     pagecolor="#ffffff"
     bordercolor="#000000"
     borderopacity="0.25"
     inkscape:showpageshadow="2"
     inkscape:pageopacity="0.0"
     inkscape:pagecheckerboard="0"
     inkscape:deskcolor="#d1d1d1"
     showgrid="false"
     inkscape:zoom="4.5409937"
     inkscape:cx="69.698401"
     inkscape:cy="13.543291"
     inkscape:window-width="1920"
     inkscape:window-height="1032"
     inkscape:window-x="0"
     inkscape:window-y="24"
     inkscape:window-maximized="1"
     inkscape:current-layer="svg" />
  <metadata
     id="metadata2">
    <rdf:RDF>
      <cc:Work
         rdf:about="">
        <dc:format>image/svg+xml</dc:format>
        <dc:type
           rdf:resource="http://purl.org/dc/dcmitype/StillImage" />
      </cc:Work>
    </rdf:RDF>
  </metadata>
  <defs
     id="defs5">
    <style
       id="current-color-scheme"
       type="text/css">&#10;          .ColorScheme-Text { color:#dfdfdf; }&#10;          .ColorScheme-Background { color:#242424;}&#10;          .ColorScheme-Highlight { color:#4285f4;}&#10;          .ColorScheme-ViewText { color:#dfdfdf;}&#10;          .ColorScheme-ViewBackground { color:#343434;}&#10;          .ColorScheme-ViewFocus{ color:#4285f4;}&#10;          .ColorScheme-ButtonText { color:#dfdfdf;}&#10;          .ColorScheme-ButtonBackground { color:#242424;}&#10;          .ColorScheme-ButtonFocus{ color:#4285f4;}&#10;   </style>
  </defs>
  <g
     fill="currentColor"
     id="g11">
    <path
       id="expander-bottom"
       class="ColorScheme-Text"
       d="m-18 23 2-2 2 2z" />
    <path
       id="expander-top"
       class="ColorScheme-Text"
       d="m-18 17 2 2 2-2z" />
    <path
       id="expander-right"
       class="ColorScheme-Text"
       d="m-13 18-2 2 2 2z" />
    <path
       id="expander-left"
       class="ColorScheme-Text"
       d="m-19 18 2 2-2 2z" />
  </g>
  <g
     id="22-22-notification-progress-active">
    <path
       id="empty-rectangle"
       d="m40 0h22v22h-22z"
       fill="none" />
    <g
       class="ColorScheme-Text"
       transform="translate(-38)"
       fill="currentColor"
       id="g18">
      <path
         class="ColorScheme-Text"
         d="m89 2a9 9 0 0 0-9 9 9 9 0 0 0 9 9 9 9 0 0 0 9-9 9 9 0 0 0-9-9zm0 1a8 8 0 0 1 8 8 8 8 0 0 1-8 8 8 8 0 0 1-8-8 8 8 0 0 1 8-8z"
         id="path14" />
      <circle
         class="ColorScheme-Text"
         cx="89"
         cy="11"
         r="7"
         id="circle16" />
    </g>
  </g>
  <g
     id="22-22-notification-progress-inactive"
     transform="translate(-38,1)"
     fill="currentColor"
     class="ColorScheme-Text">
    <path
       d="m40 40h22v22h-22z"
       fill="none"
       id="path21" />
    <path
       class="ColorScheme-Text"
       d="m89 41a9 9 0 0 0-9 9 9 9 0 0 0 9 9 9 9 0 0 0 9-9 9 9 0 0 0-9-9zm0 1a8 8 0 0 1 8 8 8 8 0 0 1-8 8 8 8 0 0 1-8-8 8 8 0 0 1 8-8z"
       id="path23" />
    <circle
       class="ColorScheme-Text"
       cx="89"
       cy="50"
       r="7"
       opacity=".15"
       id="circle25" />
  </g>
  <g
     id="22-22-notification-active"
     transform="translate(-1.002 -22.865)">
    <rect
       y="63"
       width="22"
       height="22"
       fill="none"
       stroke-linecap="round"
       stroke-linejoin="round"
       stroke-width="1.6923"
       id="rect30" />
    <path
       class="ColorScheme-Text"
       d="m 11,67 c -3.2266,0 -5.8715,2.4513 -5.9941,5.5684 l -0.00391,0.22461 v 3.6074 l -0.92382,2.2207 -0.042969,0.12695 -0.021484,0.12695 c -0.050399,0.4635 0.19274,0.88173 0.60352,1.0527 l 0.125,0.04297 c 0.08456,0.0228 0.17182,0.0332 0.25977,0.0332 h 3.5 l 0.00586,0.16016 c 0.084649,1.3041 1.1687,2.3359 2.4941,2.3359 1.3252,0 2.409,-1.0303 2.4941,-2.334 l 0.0059,-0.16211 h 3.502 l 0.13477,-0.0098 0.11523,-0.02734 c 0.4527,-0.129 0.75,-0.51489 0.75,-0.96289 l -0.0098,-0.13086 -0.01367,-0.08594 c -0.0127,-0.0569 -0.03209,-0.11192 -0.05469,-0.16602 l -0.92383,-2.2227 v -3.5957 l -0.0039,-0.22461 -0.0078,-0.11914 a 4,4 0 0 1 -0.98828,0.40625 v 3.6348 l 0.03906,0.19141 0.96289,2.3125 -0.04492,0.002 -11.957,-0.002 0.96289,-2.3125 0.037085,-0.19141 v -3.6973 l 0.00391,-0.20508 0.013672,-0.21289 c 0.21002,-2.4613 2.3579,-4.3848 4.9805,-4.3848 0.04509,0 0.08997,0.0028 0.13477,0.0039 a 4,4 0 0 1 0.39844,-0.98047 c -0.17569,-0.01489 -0.35357,-0.02343 -0.5332,-0.02343 z M 9.502,80.004 h 3 l -0.0059,0.14062 c -0.07256,0.7606 -0.7144,1.3555 -1.4941,1.3555 l -0.14453,-0.0078 c -0.71281,-0.0681 -1.2791,-0.63496 -1.3477,-1.3477 z"
       fill="currentColor"
       id="path32"
       style="display:none" />
    <path
       id="path10"
       style="display:inline;stroke-width:0.673227"
       class="ColorScheme-Text"
       fill="currentColor"
       d="M 11.003953 66.999766 C 7.6586484 66.999766 4.9375469 69.720858 4.9375469 73.066172 L 4.9375469 76.587656 L 3.9375469 79.085703 C 3.6748784 79.743269 4.1747708 80.479533 4.8828594 80.480234 L 8.4297344 80.480234 C 8.7416011 81.646288 9.771557 82.49934 11.003953 82.499766 C 12.236357 82.499339 13.264359 81.646286 13.576219 80.480234 L 17.128953 80.480234 C 17.837034 80.479459 18.336984 79.743278 18.074266 79.085703 L 17.070359 76.575937 L 17.070359 73.066172 C 17.070359 72.950397 17.067026 72.836615 17.060594 72.722422 A 4.2655864 4.2655864 0 0 1 15.709031 73.200937 L 15.709031 76.773203 A 0.34512121 0.34512121 0 0 0 15.732469 76.902109 L 16.617234 79.118906 L 5.392625 79.118906 L 6.2754375 76.909922 A 0.34512121 0.34512121 0 0 0 6.298875 76.782969 L 6.298875 73.066172 C 6.298875 70.527922 8.2747472 68.482588 10.78325 68.368906 A 4.2655864 4.2655864 0 0 1 11.240281 67.005625 C 11.161459 67.002575 11.083509 66.999766 11.003953 66.999766 z M 9.9473125 80.480234 L 12.062547 80.480234 C 11.823093 80.851797 11.468982 81.136853 11.003953 81.138437 C 10.539363 81.136838 10.186878 80.851222 9.9473125 80.480234 z " />
    <circle
       cx="15"
       cy="69"
       r="3"
       class="ColorScheme-Highlight"
       fill="currentColor"
       stroke-linecap="round"
       stroke-linejoin="round"
       stroke-width="2.1825"
       id="circle34" />
  </g>
  <g
     id="22-22-notification-disabled"
     transform="matrix(0.6875,0,0,0.6875,-83.502,-8.828501)">
    <rect
       x="120"
       y="-41"
       width="32"
       height="32"
       rx="0"
       ry="0"
       fill="none"
       stroke-linecap="round"
       stroke-linejoin="round"
       stroke-width="2.1333"
       id="rect2" />
    <path
       class="ColorScheme-Text"
       d="m 124.68551,-35.164262 c -0.12781,0 -0.25558,0.04855 -0.35352,0.14648 -0.19587,0.19587 -0.19587,0.51116 0,0.70703 l 4.2754,4.2754 c -0.70335,1.2367 -1.1113,2.6621 -1.1113,4.1855 v 5.3262 l -1.5176,3.8027 c -0.26223,0.65647 0.21888,1.3704 0.92578,1.3711 h 5.6309 c 0.24848,1.7215 1.7215,2.9994 3.4609,3 1.7394,-6.02e-4 3.2144,-1.2785 3.4629,-3 h 3.834 l 3.668,3.668 c 0.19587,0.19587 0.51116,0.19587 0.70703,0 0.19587,-0.19587 0.19587,-0.51116 0,-0.70703 l -17.797,-17.797 -4.83199,-4.832 c -0.0979,-0.09793 -0.2257,-0.14648 -0.35351,-0.14648 z m 11.311,0.81445 c -2.4418,0 -4.6405,1.0329 -6.1914,2.6836 l 0.70117,0.70117 c 1.3674,-1.4682 3.3163,-2.3848 5.4902,-2.3848 4.155,0 7.5,3.345 7.5,7.5 v 5.5059 l 1.582,3.9512 0.73243,0.73242 c 0.25749,-0.26903 0.36577,-0.67293 0.21093,-1.0605 l -1.5254,-3.8164 v -5.3125 c 0,-4.6917 -3.8083,-8.5 -8.5,-8.5 z m -6.6582,5.0449 12.955,12.955 h -15.38899 l 1.59179,-3.9805 v -5.5195 c 0,-1.2484 0.30608,-2.422 0.8418,-3.4551 z m 4.2148,13.955 h 4.8887 c -0.23713,1.1617 -1.2596,1.9971 -2.4453,2 -1.1857,-0.0029 -2.2062,-0.83828 -2.4434,-2 z"
       fill="currentColor"
       id="path5"
       style="display:none" />
    <path
       id="path6"
       class="ColorScheme-Text"
       fill="currentColor"
       style="display:inline;stroke-width:0.962755"
       d="m 125.10695,-35.164362 c -0.23494,0 -0.47398,0.09229 -0.65248,0.270775 -0.35621,0.356196 -0.35621,0.948787 0,1.304983 l 3.91119,3.911192 c -0.6105,1.180846 -0.99472,2.501662 -0.99472,3.922474 v 5.043181 l -1.4291,3.582125 c -0.36244,0.907359 0.32339,1.924542 1.30123,1.92551 h 5.11088 c 0.42576,1.666299 1.88893,2.88766 3.64229,2.888265 1.75336,-6.07e-4 3.21813,-1.221754 3.64418,-2.888265 h 3.19852 l 3.40161,3.401609 c 0.35621,0.356201 0.94878,0.356201 1.30498,0 0.3562,-0.356197 0.3562,-0.948788 0,-1.304984 l -17.13402,-17.134029 -4.65206,-4.652061 c -0.17856,-0.178613 -0.41756,-0.270775 -0.6525,-0.270775 z m 10.88929,0.784119 c -2.47464,5.7e-4 -4.70806,1.049191 -6.28047,2.722791 a 0.44184194,0.44184194 0 0 0 0.01,0.614884 l 0.67506,0.675056 a 0.44184194,0.44184194 0 0 0 0.63557,-0.01128 c 1.23642,-1.327566 2.99169,-2.154917 4.96044,-2.154917 3.76313,0 6.77878,3.015644 6.77878,6.778772 v 5.300793 a 0.44184194,0.44184194 0 0 0 0.032,0.163593 l 1.52311,3.804011 a 0.44184194,0.44184194 0 0 0 0.0978,0.14855 l 0.70514,0.705143 a 0.44184194,0.44184194 0 0 0 0.63181,-0.0075 c 0.35786,-0.373898 0.50797,-0.95201 0.29334,-1.489261 l -1.43662,-3.595288 v -5.030029 c 0,-4.755355 -3.8683,-8.624211 -8.62342,-8.625305 z m -6.2391,6.092433 11.23527,11.237155 h -13.09685 l 1.28994,-3.226734 a 0.44184194,0.44184194 0 0 0 0.032,-0.163593 v -5.313956 c 0,-0.905876 0.21945,-1.745751 0.53968,-2.532872 z m 4.52796,13.083688 h 3.42605 c -0.33401,0.621996 -0.97422,1.038528 -1.71115,1.041732 -0.73849,-0.0018 -1.38032,-0.418643 -1.7149,-1.041732 z" />
  </g>
  <g
     id="22-22-notification-empty"
     transform="matrix(0.6875,0,0,0.6875,-18.275189,-37.004)"
     style="display:inline">
    <rect
       x="85.497002"
       width="32"
       height="32"
       fill="none"
       stroke-linecap="round"
       stroke-linejoin="round"
       stroke-width="2.0098"
       id="rect6"
       y="0" />
    <path
       class="ColorScheme-Text"
       d="m 101.49401,5.8181818 c -4.691696,0 -8.499996,3.8083 -8.499996,8.5000002 v 5.3262 l -1.5195,3.8027 c -0.26223,0.65647 0.22083,1.3704 0.92773,1.3711 h 5.6289 c 0.24848,1.7215 1.7235,2.9994 3.462896,3 1.7394,-6.02e-4 3.2144,-1.2785 3.4629,-3 h 5.6348 c 0.7069,-7.16e-4 1.19,-0.71463 0.92773,-1.3711 l -1.5254,-3.8164 v -5.3125 c 0,-4.6917002 -3.8083,-8.5000002 -8.5,-8.5000002 z m 0,1 c 4.155,0 7.5,3.3450002 7.5,7.5000002 v 5.5059 l 1.5977,3.9941 H 92.402714 l 1.5918,-3.9805 v -5.5195 c 0,-4.155 3.345,-7.5000002 7.499996,-7.5000002 z M 99.050614,24.818182 h 4.886696 c -0.23713,1.1617 -1.2577,1.9971 -2.4434,2 -1.1857,-0.0029 -2.206196,-0.83828 -2.443396,-2 z"
       fill="currentColor"
       id="path7"
       style="display:none" />
    <path
       id="path8"
       class="ColorScheme-Text"
       fill="currentColor"
       style="display:inline;stroke-width:0.955548"
       d="m 101.49418,5.8181818 c -4.74818,0 -8.611123,3.8629394 -8.611123,8.6111302 v 4.996098 l -1.418391,3.545979 c -0.372821,0.933322 0.33684,1.979154 1.341872,1.980149 h 5.035291 c 0.442643,1.655046 1.903144,2.86604 3.652351,2.866644 1.74922,-6.06e-4 3.20972,-1.211601 3.65236,-2.866644 h 5.04089 c 1.00502,-0.0011 1.71477,-1.046814 1.34188,-1.980149 l -1.424,-3.560909 v -4.981168 c 0,-4.7481908 -3.86293,-8.6111302 -8.61113,-8.6111302 z m 0,1.9334917 c 3.70742,0 6.67765,2.9702175 6.67765,6.6776385 v 5.261113 a 0.48984945,0.48984945 0 0 0 0.0336,0.181031 l 1.2579,3.14659 H 93.530665 l 1.25229,-3.133526 a 0.48984945,0.48984945 0 0 0 0.0336,-0.181031 v -5.274177 c 0,-3.707421 2.970222,-6.6776385 6.677625,-6.6776385 z M 99.993678,24.951538 h 3.002882 c -0.33987,0.527381 -0.84234,0.930904 -1.50238,0.933152 -0.65942,-0.0023 -1.16048,-0.406587 -1.500502,-0.933152 z" />
  </g>
  <g
     id="notification-inactive"
     transform="translate(-.49406)">
    <rect
       x="85.497"
       width="32"
       height="32"
       fill="none"
       stroke-linecap="round"
       stroke-linejoin="round"
       stroke-width="2.0098"
       id="rect52" />
    <path
       class="ColorScheme-Text"
       d="m 101.49401,5 c -4.691696,0 -8.499996,3.8083 -8.499996,8.5 v 5.3262 l -1.5195,3.8027 c -0.26223,0.65647 0.22083,1.3704 0.92773,1.3711 h 5.6289 c 0.24848,1.7215 1.7235,2.9994 3.462896,3 1.7394,-6.02e-4 3.2144,-1.2785 3.4629,-3 h 5.6348 c 0.7069,-7.16e-4 1.19,-0.71463 0.92773,-1.3711 l -1.5254,-3.8164 V 13.5 c 0,-4.6917 -3.8083,-8.5 -8.5,-8.5 z m 0,1 c 4.155,0 7.5,3.345 7.5,7.5 v 5.5059 L 110.59171,23 H 92.402714 l 1.5918,-3.9805 V 13.5 c 0,-4.155 3.345,-7.5 7.499996,-7.5 z m -2.443396,18 h 4.886696 c -0.23713,1.1617 -1.2577,1.9971 -2.4434,2 -1.1857,-0.0029 -2.206196,-0.83828 -2.443396,-2 z"
       fill="currentColor"
       id="path54"
       style="display:none" />
    <path
       id="path4"
       class="ColorScheme-Text"
       fill="currentColor"
       style="display:inline;stroke-width:0.955548"
       d="m 100.99017,5.0000001 c -4.748183,0 -8.611126,3.8629394 -8.611126,8.6111299 v 4.996098 l -1.418391,3.545979 c -0.372821,0.933322 0.33684,1.979154 1.341872,1.980149 h 5.035291 c 0.442643,1.655046 1.903144,2.86604 3.652354,2.866644 1.74922,-6.06e-4 3.20972,-1.211601 3.65236,-2.866644 h 5.04089 c 1.00502,-0.0011 1.71477,-1.046814 1.34188,-1.980149 l -1.424,-3.560909 V 13.61113 c 0,-4.7481905 -3.86293,-8.6111299 -8.61113,-8.6111299 z m 0,1.9334917 c 3.70742,0 6.67765,2.9702173 6.67765,6.6776382 v 5.261113 a 0.48984945,0.48984945 0 0 0 0.0336,0.181031 l 1.2579,3.14659 H 93.026652 l 1.25229,-3.133526 a 0.48984945,0.48984945 0 0 0 0.0336,-0.181031 V 13.61113 c 0,-3.7074209 2.970222,-6.6776382 6.677628,-6.6776382 z M 99.489665,24.133356 h 3.002885 c -0.33987,0.527381 -0.84234,0.930904 -1.50238,0.933152 -0.65942,-0.0023 -1.160488,-0.406587 -1.500505,-0.933152 z" />
  </g>
  <g
     id="notification-disabled"
     transform="translate(-36)">
    <rect
       x="120"
       y="-41"
       width="32"
       height="32"
       rx="0"
       ry="0"
       fill="none"
       stroke-linecap="round"
       stroke-linejoin="round"
       stroke-width="2.1333"
       id="rect57" />
    <path
       class="ColorScheme-Text"
       d="m 124.19,-36.814 c -0.12781,0 -0.25558,0.04855 -0.35352,0.14648 -0.19587,0.19587 -0.19587,0.51116 0,0.70703 l 4.2754,4.2754 c -0.70335,1.2367 -1.1113,2.6621 -1.1113,4.1855 v 5.3262 l -1.5176,3.8027 c -0.26223,0.65647 0.21888,1.3704 0.92578,1.3711 h 5.6309 c 0.24848,1.7215 1.7215,2.9994 3.4609,3 1.7394,-6.02e-4 3.2144,-1.2785 3.4629,-3 h 3.834 l 3.668,3.668 c 0.19587,0.19587 0.51116,0.19587 0.70703,0 0.19587,-0.19587 0.19587,-0.51116 0,-0.70703 l -17.797,-17.797 -4.832,-4.832 c -0.0979,-0.09793 -0.2257,-0.14648 -0.35351,-0.14648 z m 11.311,0.81445 c -2.4418,0 -4.6405,1.0329 -6.1914,2.6836 l 0.70117,0.70117 c 1.3674,-1.4682 3.3163,-2.3848 5.4902,-2.3848 4.155,0 7.5,3.345 7.5,7.5 v 5.5059 l 1.582,3.9512 0.73243,0.73242 c 0.25749,-0.26903 0.36577,-0.67293 0.21093,-1.0605 l -1.5254,-3.8164 v -5.3125 c 0,-4.6917 -3.8083,-8.5 -8.5,-8.5 z m -6.6582,5.0449 12.955,12.955 h -15.389 l 1.5918,-3.9805 v -5.5195 c 0,-1.2484 0.30608,-2.422 0.8418,-3.4551 z m 4.2148,13.955 h 4.8887 c -0.23713,1.1617 -1.2596,1.9971 -2.4453,2 -1.1857,-0.0029 -2.2062,-0.83828 -2.4434,-2 z"
       fill="currentColor"
       id="path59"
       style="display:none" />
    <path
       id="path3"
       class="ColorScheme-Text"
       fill="currentColor"
       style="display:inline;stroke-width:0.962755"
       d="m 124.61144,-36.813894 c -0.23494,0 -0.47398,0.09229 -0.65248,0.270775 -0.35621,0.356196 -0.35621,0.948787 0,1.304983 l 3.91119,3.911192 c -0.6105,1.180846 -0.99472,2.501662 -0.99472,3.922474 v 5.043181 l -1.4291,3.582125 c -0.36244,0.907359 0.32339,1.924542 1.30123,1.92551 h 5.11088 c 0.42576,1.666299 1.88893,2.88766 3.64229,2.888265 1.75336,-6.07e-4 3.21813,-1.221754 3.64418,-2.888265 h 3.19852 l 3.40161,3.401609 c 0.35621,0.356201 0.94878,0.356201 1.30498,0 0.3562,-0.356197 0.3562,-0.948788 0,-1.304984 l -17.13402,-17.134029 -4.65206,-4.652061 c -0.17856,-0.178613 -0.41756,-0.270775 -0.6525,-0.270775 z m 10.88929,0.784119 c -2.47464,5.7e-4 -4.70806,1.049191 -6.28047,2.722791 a 0.44184194,0.44184194 0 0 0 0.01,0.614884 l 0.67506,0.675056 a 0.44184194,0.44184194 0 0 0 0.63557,-0.01128 c 1.23642,-1.327566 2.99169,-2.154917 4.96044,-2.154917 3.76313,0 6.77878,3.015644 6.77878,6.778772 v 5.300793 a 0.44184194,0.44184194 0 0 0 0.032,0.163593 l 1.52311,3.804011 a 0.44184194,0.44184194 0 0 0 0.0978,0.14855 l 0.70514,0.705143 a 0.44184194,0.44184194 0 0 0 0.63181,-0.0075 c 0.35786,-0.373898 0.50797,-0.95201 0.29334,-1.489261 l -1.43662,-3.595288 v -5.030029 c 0,-4.755355 -3.8683,-8.624211 -8.62342,-8.625305 z m -6.2391,6.092433 11.23527,11.237155 h -13.09685 l 1.28994,-3.226734 a 0.44184194,0.44184194 0 0 0 0.032,-0.163593 v -5.313956 c 0,-0.905876 0.21945,-1.745751 0.53968,-2.532872 z m 4.52796,13.083688 h 3.42605 c -0.33401,0.621996 -0.97422,1.038528 -1.71115,1.041732 -0.73849,-0.0018 -1.38032,-0.418643 -1.7149,-1.041732 z" />
  </g>
  <g
     id="22-22-notification-inactive"
     transform="matrix(0.6875,0,0,0.6875,-58.779437,0)"
     style="display:inline">
    <rect
       x="85.497002"
       width="32"
       height="32"
       fill="none"
       stroke-linecap="round"
       stroke-linejoin="round"
       stroke-width="2.0098"
       id="rect1"
       y="0" />
    <path
       class="ColorScheme-Text"
       d="m 101.49401,5.8181818 c -4.691696,0 -8.499996,3.8083 -8.499996,8.5000002 v 5.3262 l -1.5195,3.8027 c -0.26223,0.65647 0.22083,1.3704 0.92773,1.3711 h 5.6289 c 0.24848,1.7215 1.7235,2.9994 3.462896,3 1.7394,-6.02e-4 3.2144,-1.2785 3.4629,-3 h 5.6348 c 0.7069,-7.16e-4 1.19,-0.71463 0.92773,-1.3711 l -1.5254,-3.8164 v -5.3125 c 0,-4.6917002 -3.8083,-8.5000002 -8.5,-8.5000002 z m 0,1 c 4.155,0 7.5,3.3450002 7.5,7.5000002 v 5.5059 l 1.5977,3.9941 H 92.402714 l 1.5918,-3.9805 v -5.5195 c 0,-4.155 3.345,-7.5000002 7.499996,-7.5000002 z M 99.050614,24.818182 h 4.886696 c -0.23713,1.1617 -1.2577,1.9971 -2.4434,2 -1.1857,-0.0029 -2.206196,-0.83828 -2.443396,-2 z"
       fill="currentColor"
       id="path1"
       style="display:none" />
    <path
       id="path2"
       class="ColorScheme-Text"
       fill="currentColor"
       style="display:inline;stroke-width:0.955548"
       d="m 101.49418,5.8181818 c -4.74818,0 -8.611123,3.8629394 -8.611123,8.6111302 v 4.996098 l -1.418391,3.545979 c -0.372821,0.933322 0.33684,1.979154 1.341872,1.980149 h 5.035291 c 0.442643,1.655046 1.903144,2.86604 3.652351,2.866644 1.74922,-6.06e-4 3.20972,-1.211601 3.65236,-2.866644 h 5.04089 c 1.00502,-0.0011 1.71477,-1.046814 1.34188,-1.980149 l -1.424,-3.560909 v -4.981168 c 0,-4.7481908 -3.86293,-8.6111302 -8.61113,-8.6111302 z m 0,1.9334917 c 3.70742,0 6.67765,2.9702175 6.67765,6.6776385 v 5.261113 a 0.48984945,0.48984945 0 0 0 0.0336,0.181031 l 1.2579,3.14659 H 93.530665 l 1.25229,-3.133526 a 0.48984945,0.48984945 0 0 0 0.0336,-0.181031 v -5.274177 c 0,-3.707421 2.970222,-6.6776385 6.677625,-6.6776385 z M 99.993678,24.951538 h 3.002882 c -0.33987,0.527381 -0.84234,0.930904 -1.50238,0.933152 -0.65942,-0.0023 -1.16048,-0.406587 -1.500502,-0.933152 z" />
  </g>
  <g
     id="notification-active"
     transform="matrix(1.4545455,0,0,1.4545455,86.002998,-52.636367)"
     style="display:inline">
    <rect
       y="63"
       width="22"
       height="22"
       fill="none"
       stroke-linecap="round"
       stroke-linejoin="round"
       stroke-width="1.6923"
       id="rect3"
       x="0" />
    <path
       class="ColorScheme-Text"
       d="m 10.6507,66.43769 c -3.2265999,0 -5.8714999,2.4513 -5.9940999,5.5684 l -0.00391,0.22461 v 3.6074 l -0.92382,2.2207 -0.042969,0.12695 -0.021484,0.12695 c -0.050399,0.4635 0.19274,0.88173 0.60352,1.0527 l 0.125,0.04297 c 0.08456,0.0228 0.17182,0.0332 0.25977,0.0332 h 3.5 l 0.00586,0.16016 c 0.084649,1.3041 1.1687,2.3359 2.4940999,2.3359 1.3252,0 2.409,-1.0303 2.4941,-2.334 l 0.0059,-0.16211 h 3.502 l 0.13477,-0.0098 0.11523,-0.02734 c 0.4527,-0.129 0.75,-0.51489 0.75,-0.96289 l -0.0098,-0.13086 -0.01367,-0.08594 c -0.0127,-0.0569 -0.03209,-0.11192 -0.05469,-0.16602 l -0.92383,-2.2227 v -3.5957 l -0.0039,-0.22461 -0.0078,-0.11914 a 4,4 0 0 1 -0.98828,0.40625 v 3.6348 l 0.03906,0.19141 0.96289,2.3125 -0.04492,0.002 -11.9569999,-0.002 0.96289,-2.3125 0.037085,-0.19141 v -3.6973 l 0.00391,-0.20508 0.013672,-0.21289 c 0.21002,-2.4613 2.3579,-4.3848 4.9804999,-4.3848 0.04509,0 0.08997,0.0028 0.13477,0.0039 a 4,4 0 0 1 0.39844,-0.98047 c -0.17569,-0.01489 -0.35357,-0.02343 -0.5332,-0.02343 z m -1.4979999,13.004 H 12.1527 l -0.0059,0.14062 c -0.07256,0.7606 -0.7144,1.3555 -1.4941,1.3555 l -0.14453,-0.0078 C 9.7953601,80.86191 9.2290701,80.29505 9.1604701,79.58231 Z"
       fill="currentColor"
       id="path9"
       style="display:none" />
    <path
       id="path11"
       style="display:inline;stroke-width:0.673227"
       class="ColorScheme-Text"
       fill="currentColor"
       d="m 10.654294,66.437541 c -3.3453047,0 -6.0664062,2.721092 -6.0664062,6.066406 v 3.521484 l -1,2.498047 c -0.2626685,0.657566 0.2372239,1.39383 0.9453125,1.394531 h 3.546875 c 0.3118667,1.166054 1.3418226,2.019106 2.5742187,2.019532 1.232404,-4.27e-4 2.260406,-0.85348 2.572266,-2.019532 h 3.552734 c 0.708081,-7.75e-4 1.208031,-0.736956 0.945313,-1.394531 L 16.7207,76.013712 v -3.509765 c 0,-0.115775 -0.0033,-0.229557 -0.0098,-0.34375 a 4.2655864,4.2655864 0 0 1 -1.351563,0.478515 v 3.572266 a 0.34512121,0.34512121 0 0 0 0.02344,0.128906 l 0.884765,2.216797 H 5.0429659 l 0.8828125,-2.208984 a 0.34512121,0.34512121 0 0 0 0.023437,-0.126953 v -3.716797 c 0,-2.53825 1.9758722,-4.583584 4.4843756,-4.697266 A 4.2655864,4.2655864 0 0 1 10.890622,66.4434 C 10.811802,66.4403 10.73385,66.4375 10.654294,66.4375 Z M 9.5976534,79.918009 h 2.1152346 c -0.239454,0.371563 -0.593565,0.656619 -1.058594,0.658203 -0.46459,-0.0016 -0.8170751,-0.287215 -1.0566406,-0.658203 z" />
    <circle
       cx="14.435438"
       cy="68.5"
       r="2.7518427"
       class="ColorScheme-Highlight"
       fill="currentColor"
       stroke-linecap="round"
       stroke-linejoin="round"
       stroke-width="2.00197"
       id="circle11"
       style="display:inline" />
  </g>
</svg>
